  <!--?xml version="1.0" encoding="utf-8"?-->
  <svg viewBox="200 488.189 111.658 111.811" xmlns="http://www.w3.org/2000/svg">
    <rect
      y="488.189"
      width="111.658"
      height="111.811"
      style="paint-order: fill; fill: none"
      x="200"
    >
      <title>Rect</title>
    </rect>
    <g style="" transform="matrix(1, 0, 0, 1, -0.608993, -6.116997)">
      <title>Install - full logo</title>
      <path
        d="M 230.955 534.548 L 256.397 549.31 L 282.152 534.548 L 256.397 519.785 L 230.955 534.548"
        style="
          fill: rgb(255, 255, 255);
          fill-rule: evenodd;
          fill-opacity: 1;
          stroke-width: 2px;
        "
      ></path>
      <path
        d="M 230.955 534.548 L 256.397 549.31 L 282.152 534.548 L 256.397 519.785 L 230.955 534.548 Z"
        style="
          fill: none;
          stroke: rgb(21, 21, 21);
          stroke-opacity: 1;
          stroke-miterlimit: 0;
          stroke-linecap: round;
          stroke-linejoin: round;
          stroke-dashoffset: 0px;
          stroke-width: 2px;
        "
      ></path>
      <path
        d="M 205.2 549.31 L 230.955 564.072 L 230.955 593.911 L 205.2 579.148 L 205.2 549.31"
        style="
          fill: rgb(255, 150, 58);
          fill-rule: evenodd;
          fill-opacity: 1;
          stroke-width: 2px;
        "
      ></path>
      <path
        d="M 205.2 549.31 L 230.955 564.072 L 230.955 593.911 L 205.2 579.148 L 205.2 549.31 Z"
        style="
          fill: none;
          stroke: rgb(21, 21, 21);
          stroke-opacity: 1;
          stroke-miterlimit: 0;
          stroke-linecap: round;
          stroke-linejoin: round;
          stroke-dashoffset: 0px;
          stroke-width: 2px;
        "
      ></path>
      <path
        d="M 256.397 549.31 L 230.955 564.072 L 230.955 593.911 L 256.397 579.148 L 256.397 549.31"
        style="
          fill: rgb(248, 126, 38);
          fill-rule: evenodd;
          fill-opacity: 1;
          stroke-width: 2px;
        "
      ></path>
      <path
        d="M 256.397 549.31 L 230.955 564.072 L 230.955 593.911 L 256.397 579.148 L 256.397 549.31 Z"
        style="
          fill: none;
          stroke: rgb(21, 21, 21);
          stroke-opacity: 1;
          stroke-miterlimit: 0;
          stroke-linecap: round;
          stroke-linejoin: round;
          stroke-dashoffset: 0px;
          stroke-width: 2px;
        "
      ></path>
      <path
        d="M 205.2 549.31 L 230.955 564.072 L 256.397 549.31 L 230.955 534.548 L 205.2 549.31"
        style="
          fill: rgb(255, 255, 255);
          fill-rule: evenodd;
          fill-opacity: 1;
          stroke-width: 2px;
        "
      ></path>
      <path
        d="M 205.2 549.31 L 230.955 564.072 L 256.397 549.31 L 230.955 534.548 L 205.2 549.31 Z"
        style="
          fill: none;
          stroke: rgb(21, 21, 21);
          stroke-opacity: 1;
          stroke-miterlimit: 0;
          stroke-linecap: round;
          stroke-linejoin: round;
          stroke-dashoffset: 0px;
          stroke-width: 2px;
        "
      ></path>
      <path
        d="M 256.397 549.31 L 282.152 564.072 L 282.152 593.911 L 256.397 579.148 L 256.397 549.31"
        style="
          fill: rgb(255, 150, 58);
          fill-rule: evenodd;
          fill-opacity: 1;
          stroke-width: 2px;
        "
      ></path>
      <path
        d="M 256.397 549.31 L 282.152 564.072 L 282.152 593.911 L 256.397 579.148 L 256.397 549.31 Z"
        style="
          fill: none;
          stroke: rgb(21, 21, 21);
          stroke-opacity: 1;
          stroke-miterlimit: 0;
          stroke-linecap: round;
          stroke-linejoin: round;
          stroke-dashoffset: 0px;
          stroke-width: 2px;
        "
      ></path>
      <path
        d="M 307.907 549.31 L 282.152 564.072 L 282.152 593.911 L 307.907 579.148 L 307.907 549.31"
        style="
          fill: rgb(248, 126, 38);
          fill-rule: evenodd;
          fill-opacity: 1;
          stroke-width: 2px;
        "
      ></path>
      <path
        d="M 307.907 549.31 L 282.152 564.072 L 282.152 593.911 L 307.907 579.148 L 307.907 549.31 Z"
        style="
          fill: none;
          stroke: rgb(21, 21, 21);
          stroke-opacity: 1;
          stroke-miterlimit: 0;
          stroke-linecap: round;
          stroke-linejoin: round;
          stroke-dashoffset: 0px;
          stroke-width: 2px;
        "
      ></path>
      <path
        d="M 256.397 519.785 L 282.152 534.548 L 282.152 564.072 L 256.397 549.31 L 256.397 519.785"
        style="
          fill: rgb(255, 150, 58);
          fill-rule: evenodd;
          fill-opacity: 1;
          stroke-width: 2px;
        "
      ></path>
      <path
        d="M 256.397 519.785 L 282.152 534.548 L 282.152 564.072 L 256.397 549.31 L 256.397 519.785 Z"
        style="
          fill: none;
          stroke: rgb(21, 21, 21);
          stroke-opacity: 1;
          stroke-miterlimit: 0;
          stroke-linecap: round;
          stroke-linejoin: round;
          stroke-dashoffset: 0px;
          stroke-width: 2px;
        "
      ></path>
      <path
        d="M 307.907 519.785 L 282.152 534.548 L 282.152 564.072 L 307.907 549.31 L 307.907 519.785"
        style="
          fill: rgb(248, 126, 38);
          fill-rule: evenodd;
          fill-opacity: 1;
          stroke-width: 2px;
        "
      ></path>
      <path
        d="M 307.907 519.785 L 282.152 534.548 L 282.152 564.072 L 307.907 549.31 L 307.907 519.785 Z"
        style="
          fill: none;
          stroke: rgb(21, 21, 21);
          stroke-opacity: 1;
          stroke-miterlimit: 0;
          stroke-linecap: round;
          stroke-linejoin: round;
          stroke-dashoffset: 0px;
          stroke-width: 2px;
        "
      ></path>
      <path
        d="M 256.397 519.785 L 282.152 534.548 L 307.907 519.785 L 282.152 504.709 L 256.397 519.785"
        style="
          fill: rgb(255, 255, 255);
          fill-rule: evenodd;
          fill-opacity: 1;
          stroke-width: 2px;
        "
      ></path>
      <path
        d="M 256.397 519.785 L 282.152 534.548 L 307.907 519.785 L 282.152 504.709 L 256.397 519.785 Z"
        style="
          fill: none;
          stroke: rgb(21, 21, 21);
          stroke-opacity: 1;
          stroke-miterlimit: 0;
          stroke-linecap: round;
          stroke-linejoin: round;
          stroke-dashoffset: 0px;
          stroke-width: 2px;
        "
      ></path>
    </g>
  </svg>